<?xml version="1.0" encoding="UTF-8" standalone="no"?>
<svg
   version="1.1"
   id="svg2"
   viewBox="0 0 1365.3333 1365.3333"
   xmlns="http://www.w3.org/2000/svg">
  <path
    d="m 667.99998,1048.6662 c 0,-64.16698 -0.62044,-128.81698 -1.37877,-143.6667 -2.81107,-55.04737 -12.06749,-93.05259 -33.24059,-136.47992 -21.50734,-44.11289 -51.07057,-82.63022 -84.73686,-110.40198 -23.64821,-19.50771 -29.39484,-23.57963 -53.59707,-37.97755 -10.35553,-6.16049 -45.97102,-22.80673 -48.79622,-22.80673 -0.94443,0 -2.28715,-0.55289 -2.98381,-1.22865 -1.49195,-1.44716 -34.00787,-11.07847 -44.6,-13.21064 -19.50928,-3.92718 -46.10131,-6.86412 -65.92915,-7.28152 l -13.26249,-0.27919 -1.7944,12.66667 c -2.47233,17.45225 -2.99432,48.31543 -3.00487,177.66666 l -0.009,111.66666 h -28 -28 l 0.0289,-130.33333 c 0.0264,-118.93357 0.25284,-132.49082 2.58856,-154.99999 2.65523,-25.58826 6.36768,-48.68686 9.85759,-61.33334 7.05452,-25.56358 10.62579,-37.26221 12.82143,-42 0.6797,-1.46666 2.12633,-5.36666 3.21473,-8.66666 6.69676,-20.30447 26.44015,-58.78136 43.48873,-84.75303 28.07737,-42.77281 60.34669,-76.88074 104.66667,-110.63026 4.68777,-3.56972 29.48305,-20.07199 39.65998,-26.39532 13.56241,-8.42689 51.8048,-26.68925 65.00668,-31.04345 3.3,-1.0884 7.2,-2.5312 8.66667,-3.20623 7.66133,-3.52609 41.20988,-13.19069 56,-16.13237 79.95878,-15.90339 157.97892,-10.76771 233.99999,15.40306 41.91861,14.43076 75.99649,32.17779 114.75166,59.76019 16.88047,12.01399 47.22176,38.98231 59.91116,53.25103 5.4193,6.09383 11.5108,12.77503 13.5365,14.8471 3.5636,3.64509 24.2294,30.54649 29.8278,38.82787 24.1677,35.74973 45.9126,81.87894 57.2291,121.40474 1.2598,4.4 2.8124,9.5 3.4504,11.33333 1.6148,4.64078 6.5309,28.2356 8.0563,38.66667 0.6971,4.76667 1.5803,9.51695 1.9626,10.55616 0.3824,1.03923 1.5716,13.03923 2.6427,26.66667 1.5197,19.33483 1.9495,52.67283 1.9563,151.77717 l 0.01,126.99999 h -27.9075 -27.9076 l -0.6392,-139.66666 c -0.5016,-109.57863 -1.0339,-142.10817 -2.4711,-151 l -1.8318,-11.33333 -12.6214,0.23304 c -41.1925,0.76057 -80.77972,8.52421 -118.96833,23.33147 l -14.34687,5.56286 1.01354,8.76964 c 0.55744,4.82331 1.01353,98.76965 1.01353,208.76965 V 1022 l -27.66667,0.3604 -27.66666,0.3603 V 829.21771 c 0,-164.92591 -0.27452,-193.39769 -1.85888,-192.78971 -8.26627,3.17206 -43.58517,34.17332 -59.26032,52.01589 -37.00596,42.12283 -63.2251,90.4213 -76.19445,140.35841 -11.33531,43.64536 -12.08592,57.98044 -11.07543,211.5173 l 0.82278,125.0137 h -28.21686 -28.21684 z m 40.14696,-307.1138 c 16.27048,-34.25598 35.15362,-62.1439 61.95641,-91.50158 13.40096,-14.67833 35.11755,-35.1939 45.22996,-42.72853 2.93334,-2.18558 5.63334,-4.3314 6,-4.76846 1.23395,-1.47087 24.88758,-18.25331 28.79636,-20.43126 2.12867,-1.18608 4.77031,-2.73178 5.87031,-3.43489 12.95169,-8.27868 34.57728,-19.50523 56.66666,-29.41752 10.81399,-4.85263 36.46823,-13.49716 51.33334,-17.29745 27.4759,-7.02427 48.25932,-10.24746 73.88342,-11.4582 10.6974,-0.50546 19.4499,-1.32891 19.4499,-1.8299 0,-6.44876 -18.2611,-48.25566 -30.718,-70.32563 -8.0122,-14.19544 -22.4358,-36.51048 -25.2246,-39.02566 -0.4066,-0.36666 -2.49612,-3.06666 -4.64343,-6 -19.70091,-26.91238 -55.03669,-60.38449 -86.74729,-82.17206 -59.74239,-41.04755 -130.73576,-63.81051 -206.23392,-66.12583 -47.60648,-1.45996 -100.20019,8.09475 -149.76607,27.20804 -25.94699,10.00551 -69.31731,34.56026 -90,50.95482 -49.53411,39.26422 -82.65688,79.90693 -110.4048,135.47026 -7.33047,14.67874 -20.26186,45.95237 -20.26186,49.0018 0,1.55306 3.72096,2.11661 18.95377,2.87058 17.53638,0.868 45.42285,4.04374 47.66237,5.42783 0.52933,0.32715 4.20724,1.14152 8.17313,1.80972 14.93084,2.51565 55.94471,14.86908 65.47784,19.722 1.98026,1.00807 4.13546,1.83284 4.78935,1.83284 0.65389,0 2.77945,-4.05 4.72345,-9 3.43291,-8.74117 15.75027,-30.58893 21.41884,-37.9914 16.18291,-21.13291 24.58009,-30.25938 39.46791,-42.89572 15.20517,-12.90569 21.18029,-17.01928 39.57184,-27.24334 38.05215,-21.15363 86.78361,-31.79744 129.22511,-28.22507 33.24759,2.79849 55.08487,8.61855 82.53637,21.99753 36.08704,17.58766 63.48564,40.6231 88.77871,74.64096 8.79708,11.83161 8.77466,12.077 -1.44537,15.82228 -3.3,1.20933 -13.46387,6.34285 -22.58638,11.40783 -9.1225,5.06497 -17.34417,8.91824 -18.27037,8.56282 -0.9262,-0.35541 -3.48367,-3.45073 -5.68325,-6.87849 -5.72215,-8.9172 -29.71267,-31.94085 -41.46,-39.78908 -35.15967,-23.48966 -74.14367,-33.38888 -116.99736,-29.70914 -59.00047,5.06622 -114.77348,44.51395 -141.72094,100.23789 -2.90494,6.00702 -5.2817,11.99141 -5.2817,13.29864 0,1.42466 2.10534,3.45082 5.25567,5.058 14.95501,7.62948 46.47975,33.03684 69.48549,56.00185 27.71011,27.66102 45.78993,50.90598 65.26615,83.91165 8.61696,14.60287 12.45974,22.45113 22.12106,45.17868 l 2.4312,5.71922 2.55432,-5.71922 c 1.40488,-3.14558 6.06976,-13.12064 10.3664,-22.16681 z m -245.48028,96.66981 c 0,-101.44445 0.35001,-184.79445 0.7778,-185.22224 1.96604,-1.96605 21.31041,9.57859 41.22219,24.60125 l 14.66667,11.06543 0.33851,167 0.33849,166.99995 h -28.67183 -28.67183 z"
    fill="#ffffff" />
  <path
    d="M 0,682.66665 V 0 H 682.66665 1365.3333 V 682.66665 1365.3333 H 682.66665 0 Z M 724.31186,1025 c 0.35268,-127.16682 0.62556,-142.82667 2.66614,-153.00002 1.25029,-6.23333 3.24665,-17.03333 4.43634,-24 2.16934,-12.70313 5.92839,-27.27872 9.28444,-36 0.9877,-2.56667 2.52744,-7.06667 3.42167,-10 0.89423,-2.93333 3.63295,-9.68587 6.08604,-15.00564 2.45309,-5.31976 4.46016,-10.07235 4.46016,-10.56129 0,-0.79015 6.02644,-13.25635 9.39438,-19.43307 0.69975,-1.28333 1.84658,-3.38333 2.5485,-4.66667 3.19304,-5.83793 14.00864,-23.73489 14.70525,-24.33333 0.42683,-0.36666 3.74159,-4.86666 7.36615,-10 3.62454,-5.13333 7.58488,-10.53333 8.80072,-12 19.29624,-23.27701 36.11289,-40.52984 48.77253,-50.03758 4.26019,-3.19952 8.3458,-6.46344 9.07913,-7.25316 0.73334,-0.78971 4.48334,-3.72346 8.33334,-6.51944 l 7,-5.0836 v 192.78022 192.78018 h 29.36974 29.36976 l -0.50057,-205.66662 c -0.27532,-113.11666 -0.74171,-207.04878 -1.03643,-208.73803 -0.45497,-2.60782 0.47033,-3.48762 6.13083,-5.82935 3.66666,-1.51688 8.55734,-3.58476 10.86817,-4.59529 2.31083,-1.01052 5.18473,-1.83732 6.38645,-1.83732 1.20172,0 4.41104,-1.09491 7.13183,-2.43312 13.95896,-6.86568 61.75347,-15.65211 91.74867,-16.86684 l 20.1352,-0.81542 0.8678,8.39102 c 0.4774,4.61506 1.4469,12.59102 2.1546,17.72436 0.7517,5.45282 1.3133,64.49186 1.3507,141.99999 0.035,72.96667 0.548,133.42916 1.1395,134.36111 0.8261,1.3015 7.5464,1.6107 28.9796,1.33333 l 27.9041,-0.36111 -0.097,-136.66666 c -0.094,-132.77025 -0.1816,-137.35092 -3.0572,-160.66666 -3.1982,-25.93164 -5.3365,-37.35066 -10.4864,-56 -1.8225,-6.6 -3.4399,-12.6 -3.594,-13.33334 -1.58,-7.51577 -3.0996,-12.2983 -6.9374,-21.83424 -2.4719,-6.14216 -4.4944,-11.99044 -4.4944,-12.99617 0,-3.12641 -23.5111,-52.10944 -28.6483,-59.68569 -1.5478,-2.28281 -3.2077,-5.17791 -3.6885,-6.43356 -1.7821,-4.6538 -26.3419,-40.5152 -32.3299,-47.20705 -0.7333,-0.81954 -4.3333,-5.24312 -8,-9.8302 -8.6111,-10.77274 -41.51559,-44.08064 -52.5576,-53.20203 -4.70668,-3.88802 -9.38875,-7.90028 -10.4046,-8.91613 -1.88196,-1.88195 -5.9573,-4.743 -28.37112,-19.91772 -6.96667,-4.7166 -13.32856,-9.13235 -14.13755,-9.81277 -0.80899,-0.68042 -5.30899,-3.21343 -10,-5.62892 -4.69101,-2.4155 -8.82912,-4.76454 -9.19579,-5.22008 -2.29568,-2.85222 -50.51323,-24.55016 -63.99999,-28.80007 -24.50114,-7.72073 -36.41424,-11.18047 -43.33334,-12.58465 -4.4,-0.89295 -11.9,-2.6806 -16.66666,-3.97256 -39.92045,-10.82007 -138.66639,-10.5152 -179.33333,0.55369 -3.66667,0.998 -11.46667,2.85771 -17.33333,4.13267 -5.86667,1.27496 -16.43624,4.35152 -23.48794,6.8368 -7.0517,2.48528 -13.56102,4.51869 -14.46517,4.51869 -0.90413,0 -3.53456,0.85664 -5.84539,1.90364 -10.55421,4.78195 -16.78252,7.42969 -17.47686,7.42969 -2.22768,0 -53.3482,26.1356 -56.82195,29.05048 -1.04648,0.87812 -8.20269,5.79796 -15.90269,10.93298 -29.30767,19.54481 -41.85027,29.79922 -66.02928,53.98333 -18.63801,18.64194 -28.44184,29.94284 -41.55199,47.89706 -3.80302,5.20822 -8.67102,11.86948 -10.81778,14.80282 -2.14676,2.93333 -5.61493,8.33333 -7.70705,12 -2.09212,3.66666 -4.61131,7.49673 -5.59822,8.51124 -0.98689,1.01452 -3.17358,4.61452 -4.8593,8 -1.68572,3.38549 -6.4741,12.75542 -10.64083,20.82209 -4.16673,8.06667 -9.99083,20.36667 -12.94241,27.33333 -2.9516,6.96667 -6.22603,14.55735 -7.27651,16.86817 -1.05048,2.31083 -1.92673,5.01083 -1.94723,6 -0.0205,0.98918 -1.84905,6.8985 -4.06348,13.13183 -3.69322,10.39603 -5.29117,16.30048 -11.18624,41.33333 -8.34681,35.44398 -9.24678,56.6025 -8.81888,207.33333 0.19986,70.4 0.64084,128.45 0.97998,129 0.79664,1.29199 52.64238,1.27261 54.63697,-0.0204 1.10148,-0.71407 1.72211,-38.38596 2.28959,-138.97958 0.6902,-122.34366 1.63085,-161.20929 3.95801,-163.53647 1.27033,-1.27032 48.18516,2.01814 58.90798,4.12911 5.86667,1.15495 15.46667,3.03797 21.33334,4.18449 19.70825,3.85159 45.96932,12.55162 61.59188,20.40479 4.5422,2.28328 9.0722,4.15141 10.06666,4.15141 0.99447,0 2.37812,0.52034 3.07479,1.1563 0.69667,0.63596 6.38513,3.84669 12.64104,7.13495 6.25589,3.28827 16.68092,9.51794 23.1667,13.84371 6.4858,4.32577 14.1826,9.43523 17.104,11.35436 2.92142,1.91912 5.69639,4.02157 6.16663,4.67211 0.47023,0.65054 5.05496,4.54081 10.18829,8.64502 17.1745,13.73143 41.9613,39.78551 53.60592,56.34663 1.6166,2.29915 3.44883,4.78025 4.07163,5.51359 6.22307,7.3275 20.14761,30.77688 29.69066,49.99999 8.80256,17.73154 20.15559,47.1823 21.84452,56.66667 0.52236,2.93333 1.7697,8.33333 2.77186,12 8.46457,30.96997 9.98312,63.10922 10.00109,211.66664 l 0.0143,118.3333 h 28.62616 28.62616 z M 690.97754,756.63417 c -11.2437,-29.05673 -36.97408,-69.97481 -62.86053,-99.96484 -8.56836,-9.92665 -43.62093,-44.6051 -45.11702,-44.63549 -0.91667,-0.0187 -1.66667,-0.60503 -1.66667,-1.30313 0,-0.69811 -2.85,-3.21603 -6.33333,-5.59539 -3.48334,-2.37937 -6.93334,-5.01516 -7.66667,-5.85731 -0.73333,-0.84216 -3.43333,-2.94532 -6,-4.6737 -2.56667,-1.72838 -4.96667,-3.52699 -5.33333,-3.99692 -0.99291,-1.27252 -14.52226,-10.6074 -15.37366,-10.6074 -1.70414,0 -8.62634,-5.96747 -8.62634,-7.43658 0,-1.74832 10.46426,-23.48185 11.82681,-24.56342 0.46192,-0.36667 2.29511,-3.36667 4.07375,-6.66667 1.77864,-3.3 3.60754,-6.3 4.06424,-6.66667 0.45669,-0.36666 2.24942,-2.76666 3.98385,-5.33333 4.59703,-6.80281 25.07355,-27.44316 32.05135,-32.30775 3.3,-2.30061 6.3,-4.56726 6.66666,-5.03702 0.36667,-0.46976 3.36667,-2.30936 6.66667,-4.088 3.3,-1.77864 6.3,-3.57864 6.66667,-4 2.68844,-3.08944 27.84783,-14.08632 39.33333,-17.19213 33.63024,-9.09404 55.1398,-9.38251 90,-1.20699 16.81683,3.94395 36.72495,12.25293 52.05337,21.72534 14.26138,8.81304 40.60658,34.10844 48.3672,46.43988 1.26916,2.01667 3.42072,3.66667 4.78124,3.66667 1.3605,0 7.49668,-2.79531 13.63592,-6.21179 6.13925,-3.41648 16.86226,-8.88181 23.82893,-12.14518 6.96667,-3.26338 12.86461,-6.11602 13.10653,-6.3392 1.4462,-1.33416 -17.92538,-26.1947 -30.6663,-39.35561 -18.88996,-19.51267 -36.39015,-32.93164 -56.77415,-43.53386 -6.41635,-3.33729 -12.33145,-6.59901 -13.14468,-7.24826 -0.81323,-0.64924 -4.11323,-2.02276 -7.33333,-3.05226 -3.22011,-1.0295 -9.15474,-3.1648 -13.18807,-4.74512 -9.87499,-3.86913 -18.80515,-6.20818 -30,-7.85778 -5.13333,-0.75642 -13.23333,-2.09068 -18,-2.96502 -12.58961,-2.3093 -43.79428,-2.06017 -57.33333,0.45775 -6.23333,1.15924 -14.33333,2.51076 -18,3.00337 -9.0462,1.21538 -17.58605,3.58932 -32.97853,9.16751 -13.15661,4.76792 -38.64191,16.85327 -42.33625,20.07623 -1.1102,0.96854 -4.11855,2.81132 -6.68522,4.09505 -4.55192,2.27668 -5.44998,2.93809 -11.66666,8.59228 -1.65,1.50071 -3.36027,2.72856 -3.80059,2.72856 -1.812,0 -21.55885,18.70875 -29.73959,28.17613 -16.20242,18.75073 -17.56958,20.46515 -21.12484,26.49053 -1.94716,3.3 -3.95778,6.3 -4.46806,6.66667 -1.52882,1.09855 -15.86692,29.66788 -15.86692,31.61556 0,2.78469 -3.69512,3.55027 -7.01029,1.45241 -6.49263,-4.10854 -45.25275,-16.1076 -61.65638,-19.08709 -6.6,-1.19879 -17.7,-3.30105 -24.66666,-4.67169 -6.96667,-1.37064 -21.51667,-2.91278 -32.33334,-3.42698 -10.81666,-0.51418 -19.66666,-1.46612 -19.66666,-2.1154 0,-0.64926 1.42767,-4.61242 3.1726,-8.80698 1.74493,-4.19458 3.6271,-9.1265 4.18261,-10.95983 0.55549,-1.83333 3.32783,-8.29487 6.16073,-14.35896 2.8329,-6.06409 5.15072,-11.87868 5.15072,-12.9213 0,-1.04263 0.65967,-2.30339 1.46592,-2.80168 0.80626,-0.4983 3.09504,-4.2837 5.0862,-8.41202 17.2361,-35.73613 57.40118,-86.1652 88.78122,-111.46881 4.4,-3.54799 9.2,-7.54928 10.66666,-8.89176 5.56832,-5.09685 29.65399,-21.86884 38.96783,-27.13513 2.03436,-1.15029 5.49884,-3.21231 7.69884,-4.58225 10.4895,-6.5319 46.88989,-23.56135 56.77826,-26.56299 2.50528,-0.76049 9.35507,-3.11591 15.22174,-5.23427 5.86666,-2.11836 15.46666,-4.92036 21.33333,-6.22666 5.86667,-1.30632 14.86667,-3.46812 20,-4.80402 5.13333,-1.33589 16.23333,-3.21742 24.66666,-4.18118 19.97748,-2.28303 83.90895,-2.30776 103.33334,-0.04 29.44775,3.43801 72.86169,15.74508 102.66666,29.10414 15.83343,7.0968 38.12728,18.69999 39.33333,20.47167 0.36667,0.53863 2.16667,1.75229 4,2.69703 4.95184,2.55173 21.79683,13.63742 23.33333,15.35566 0.73334,0.82007 5.02834,3.98888 9.54446,7.04179 4.5161,3.05292 8.4161,6.01575 8.66666,6.58407 0.25055,0.56833 3.45174,3.43331 7.11375,6.36665 10.50117,8.41164 31.33919,29.49292 42.83328,43.33333 11.97244,14.41641 25.26221,31.93116 27.59701,36.37035 0.868,1.65028 3.0233,5.01834 4.7896,7.48456 1.7664,2.46622 4.9931,7.85778 7.1706,11.98124 10.7318,20.32249 18.5736,36.13963 20.9039,42.16385 1.4184,3.66666 4.4093,11.07884 6.6465,16.47148 2.2371,5.39265 4.0676,10.5558 4.0676,11.47366 0,1.21783 -5.3151,1.9259 -19.6667,2.61994 -10.8167,0.5231 -24.1667,1.84622 -29.6667,2.94028 -5.5,1.09404 -12.99996,2.4884 -16.66662,3.09856 -3.66667,0.61016 -10.26667,1.81097 -14.66667,2.66845 -12.81304,2.49705 -54.06,15.65579 -58.66667,18.71603 -0.73333,0.48716 -4.33333,1.98709 -8,3.33318 -6.01769,2.20919 -23.62673,10.96127 -43.33333,21.5376 -50.3214,27.00702 -112.18594,87.32824 -141.33333,137.80751 -3.18817,5.52148 -4.87261,8.49321 -6.61292,11.66666 -0.70377,1.28334 -2.65956,4.73334 -4.34621,7.66667 -2.80165,4.87253 -13.38321,27.36492 -16.60731,35.30085 -1.24049,3.05344 -1.64946,2.50376 -5.456,-7.33333 z m -170.99797,99.69914 c -0.0107,-91.48333 -0.46122,-167.0049 -1,-167.8257 -1.27748,-1.9462 -20.33372,-17.04469 -23.96632,-18.9888 -1.54293,-0.82575 -3.60212,-2.27943 -4.57596,-3.23039 -3.49041,-3.40836 -21.83683,-13.21226 -25.10397,-13.41496 l -3.33333,-0.20681 -0.33801,185 -0.33802,184.99995 h 29.33801 29.33802 z"
    fill="#8c019a" />
</svg>
